# xmcd
#
# Track frame offsets: 
#        150
#        14066
#        29753
#        45812
#        55893
#        69823
#        85953
#        99937
#        118754
#        134510
#        147881
#        168246
#        185195
#        204593
#        220708
#        235238
#        249376
#        269641
#
# Disc length: 3759 seconds
#
# Revision: 2
# Processed by: cddbd v1.5.2PL0 Copyright (c) Steve Scherf et al.
# Submitted via: ExactAudioCopy v0.99pb4
#
DISCID=070ead12
DTITLE=Various Artist - Kiss Presents The R&B Mixtape [CD1]
DYEAR=2008
DGENRE=R&B
TTITLE0=Jordin Sparks - No Air
TTITLE1=Usher - Love In This Club
TTITLE2=Gym Class Heroes - Cookie Jar
TTITLE3=Will.I.Am - Heartbreaker feat. Cheryl Cole
TTITLE4=Kelly Rowland - Work
TTITLE5=Estelle - Pretty Please (Love Me)  feat Cee-Lo
TTITLE6=Alicia Keys - Teenage Love Affair
TTITLE7=Chris Brown - With You
TTITLE8=Mario - How Do I Breathe
TTITLE9=Jay Sean - Stay
TTITLE10=Justin Timberlake - What Goes Around...Comes Around
TTITLE11=Lil Wayne - Lollipop
TTITLE12=T.I. - No Matter What
TTITLE13=T-Pain - Church
TTITLE14=Wiz Khalifa - Say Yeah
TTITLE15=Kid Sister - Pro Nails
TTITLE16=Craig David - Are You Up For This
TTITLE17=Wiley - Wearing My Rolex
EXTD=
EXTT0=
EXTT1=
EXTT2=
EXTT3=
EXTT4=
EXTT5=
EXTT6=
EXTT7=
EXTT8=
EXTT9=
EXTT10=
EXTT11=
EXTT12=
EXTT13=
EXTT14=
EXTT15=
EXTT16=
EXTT17=
PLAYORDER=
